<svg width="1159" height="49" viewBox="0 0 1159 49" fill="none" xmlns="http://www.w3.org/2000/svg">
<path d="M85.65 -3.33786e-06V49H48.97V27.65H36.72V49H0.11V-3.33786e-06H36.72V21.42H48.97V-3.33786e-06H85.65ZM159.255 -3.33786e-06V6.16H128.595V21.35H159.255V27.58H128.595V42.84H159.255V49H91.985V-3.33786e-06H159.255ZM268.203 -3.33786e-06L286.893 49H249.583L234.183 8.54L228.023 24.85L237.193 49H199.883L184.483 8.54L169.153 49H162.643L181.263 -3.33786e-06H218.573L224.733 16.31L230.963 -3.33786e-06H268.203ZM290.911 -3.33786e-06H327.591V49H290.911V-3.33786e-06ZM441.529 -3.33786e-06V49H404.849V27.65H392.599V49H355.989V-3.33786e-06H392.599V21.42H404.849V-3.33786e-06H441.529ZM454.42 49H447.77L466.39 -3.33786e-06H503.7L522.32 49H485.15L481.51 39.55H457.99L454.42 49ZM460.37 33.39H479.2L469.75 8.54L460.37 33.39ZM590.128 -3.33786e-06V6.16H571.788V49H535.108V6.16H516.768V-3.33786e-06H590.128ZM610.369 49C607.802 49 605.376 48.51 603.089 47.53C600.849 46.55 598.866 45.22 597.139 43.54C595.459 41.8133 594.129 39.83 593.149 37.59C592.169 35.3033 591.679 32.8767 591.679 30.31V18.62C591.679 16.0533 592.169 13.65 593.149 11.41C594.129 9.12333 595.459 7.14 597.139 5.46C598.819 3.78 600.779 2.45 603.019 1.47C605.306 0.489997 607.732 -3.33786e-06 610.299 -3.33786e-06H658.669C661.236 -3.33786e-06 663.639 0.489997 665.879 1.47C668.119 2.40333 670.079 3.71 671.759 5.39C673.439 7.02333 674.769 8.96 675.749 11.2C676.729 13.44 677.242 15.8433 677.289 18.41H640.609V7.28C640.609 6.53333 640.236 6.16 639.489 6.16H629.479C628.732 6.16 628.359 6.53333 628.359 7.28V41.72C628.359 42.4667 628.732 42.84 629.479 42.84H639.489C640.236 42.84 640.609 42.4667 640.609 41.72V30.66H677.289C677.242 33.18 676.706 35.56 675.679 37.8C674.699 39.9933 673.369 41.93 671.689 43.61C670.009 45.29 668.049 46.62 665.809 47.6C663.569 48.5333 661.189 49 658.669 49H610.369ZM768.423 -3.33786e-06V49H731.743V27.65H719.493V49H682.883V-3.33786e-06H719.493V21.42H731.743V-3.33786e-06H768.423ZM811.368 -3.33786e-06V42.84H842.028V49H774.758V0.0699958H774.828V-3.33786e-06H811.368ZM847.766 -3.33786e-06H884.446V49H847.766V-3.33786e-06ZM977.261 -3.33786e-06V49H940.581V48.93L928.331 17.22V49H891.721V-3.33786e-06H928.331L940.581 31.71V-3.33786e-06H977.261ZM1001.8 49C999.23 49 996.803 48.51 994.516 47.53C992.276 46.55 990.293 45.22 988.566 43.54C986.886 41.8133 985.556 39.83 984.576 37.59C983.596 35.3033 983.106 32.8767 983.106 30.31V18.62C983.106 16.0533 983.596 13.65 984.576 11.41C985.556 9.12333 986.886 7.14 988.566 5.46C990.246 3.78 992.206 2.45 994.446 1.47C996.733 0.489997 999.16 -3.33786e-06 1001.73 -3.33786e-06H1050.1C1052.66 -3.33786e-06 1055.07 0.489997 1057.31 1.47C1059.55 2.40333 1061.51 3.71 1063.19 5.39C1064.87 7.02333 1066.2 8.96 1067.18 11.2C1068.16 13.44 1068.67 15.8433 1068.72 18.41H1032.04V7.28C1032.04 6.53333 1031.66 6.16 1030.92 6.16H1020.91C1020.16 6.16 1019.79 6.53333 1019.79 7.28V41.72C1019.79 42.4667 1020.16 42.84 1020.91 42.84H1030.92C1031.66 42.84 1032.04 42.4667 1032.04 41.72V31.71C1032.04 31.43 1031.92 31.1967 1031.69 31.01C1031.5 30.7767 1031.24 30.66 1030.92 30.66H1025.95V24.43H1068.65V30.66C1068.65 33.18 1068.13 35.56 1067.11 37.8C1066.13 39.9933 1064.8 41.93 1063.12 43.61C1061.44 45.29 1059.48 46.62 1057.24 47.6C1055 48.5333 1052.62 49 1050.1 49H1001.8ZM1078.52 5.46C1080.15 3.78 1082.09 2.45 1084.33 1.47C1086.57 0.489997 1088.95 -3.33786e-06 1091.47 -3.33786e-06H1140.54C1141.1 -3.33786e-06 1141.66 0.0233297 1142.22 0.0699958C1142.78 0.116665 1143.32 0.186665 1143.83 0.279997C1145.65 0.653331 1147.35 1.30666 1148.94 2.24C1150.57 3.12666 1152.02 4.24666 1153.28 5.6C1154.59 6.90667 1155.68 8.4 1156.57 10.08C1157.46 11.7133 1158.06 13.44 1158.39 15.26H1122.06V7.28C1122.06 6.53333 1121.69 6.16 1120.94 6.16H1110.93C1110.6 6.16 1110.32 6.27666 1110.09 6.51C1109.9 6.74333 1109.81 7 1109.81 7.28V20.3C1109.81 21.0467 1110.18 21.42 1110.93 21.42H1158.67C1158.67 27.8133 1158.67 31.1267 1158.67 31.36C1158.67 33.5533 1158.16 35.7467 1157.13 37.94C1156.1 40.0867 1154.82 41.9533 1153.28 43.54C1151.6 45.22 1149.64 46.55 1147.4 47.53C1145.21 48.51 1142.83 49 1140.26 49H1090.98C1089.77 49 1088.69 48.9067 1087.76 48.72C1085.94 48.3467 1084.21 47.7167 1082.58 46.83C1080.95 45.8967 1079.48 44.7767 1078.17 43.47C1076.91 42.1167 1075.84 40.6233 1074.95 38.99C1074.11 37.31 1073.53 35.56 1073.2 33.74H1109.81V41.72C1109.81 42.4667 1110.18 42.84 1110.93 42.84H1120.94C1121.27 42.84 1121.52 42.7233 1121.71 42.49C1121.94 42.2567 1122.06 42 1122.06 41.72V28.7C1122.06 27.9533 1121.69 27.58 1120.94 27.58H1073.13V17.64C1073.27 15.26 1073.81 13.0433 1074.74 10.99C1075.67 8.89 1076.93 7.04667 1078.52 5.46Z" fill="white"/>
</svg>
