<svg width="910" height="56" viewBox="0 0 910 56" fill="none" xmlns="http://www.w3.org/2000/svg">
<path d="M87.88 40.16C87.88 42.3467 87.4 44.4 86.44 46.32C85.48 48.24 84.0933 49.92 82.28 51.36C80.4667 52.8 78.2533 53.9467 75.64 54.8C73.08 55.6 70.1733 56 66.92 56H0.52V-3.8147e-06H64.2C67.5067 -3.8147e-06 70.5467 0.426664 73.32 1.28C76.0933 2.08 78.4933 3.2 80.52 4.64C82.5467 6.02666 84.12 7.68 85.24 9.6C86.4133 11.4667 87 13.4667 87 15.6C87 18 86.2533 20.2667 84.76 22.4C83.2667 24.48 81.24 26.24 78.68 27.68C79.96 28.32 81.1333 29.12 82.2 30.08C83.32 30.9867 84.3067 32 85.16 33.12C86.0133 34.1867 86.68 35.3333 87.16 36.56C87.64 37.7333 87.88 38.9333 87.88 40.16ZM56.44 8.4C56.44 7.54667 56.0133 7.12 55.16 7.12H42.52V24.4H55.16C56.0133 24.4 56.44 23.9733 56.44 23.12V8.4ZM56.44 32.72C56.44 32.4 56.3067 32.1333 56.04 31.92C55.8267 31.6533 55.5333 31.52 55.16 31.52H42.52V48.88H55.16C56.0133 48.88 56.44 48.4533 56.44 47.6V32.72ZM94.8244 -3.8147e-06H136.744V56H94.8244V-3.8147e-06ZM224.365 -3.8147e-06V7.04H203.405V56H161.485V7.04H140.525V-3.8147e-06H224.365ZM319.677 40.16C319.677 42.3467 319.197 44.4 318.237 46.32C317.277 48.24 315.89 49.92 314.077 51.36C312.264 52.8 310.05 53.9467 307.437 54.8C304.877 55.6 301.97 56 298.717 56H232.317V-3.8147e-06H295.997C299.304 -3.8147e-06 302.344 0.426664 305.117 1.28C307.89 2.08 310.29 3.2 312.317 4.64C314.344 6.02666 315.917 7.68 317.037 9.6C318.21 11.4667 318.797 13.4667 318.797 15.6C318.797 18 318.05 20.2667 316.557 22.4C315.064 24.48 313.037 26.24 310.477 27.68C311.757 28.32 312.93 29.12 313.997 30.08C315.117 30.9867 316.104 32 316.957 33.12C317.81 34.1867 318.477 35.3333 318.957 36.56C319.437 37.7333 319.677 38.9333 319.677 40.16ZM288.237 8.4C288.237 7.54667 287.81 7.12 286.957 7.12H274.317V24.4H286.957C287.81 24.4 288.237 23.9733 288.237 23.12V8.4ZM288.237 32.72C288.237 32.4 288.104 32.1333 287.837 31.92C287.624 31.6533 287.33 31.52 286.957 31.52H274.317V48.88H286.957C287.81 48.88 288.237 48.4533 288.237 47.6V32.72ZM403.501 -3.8147e-06V7.04H368.461V24.4H403.501V31.52H368.461V48.96H403.501V56H326.621V-3.8147e-06H403.501ZM416.224 56H408.624L429.904 -3.8147e-06H472.544L493.824 56H451.344L447.184 45.2H420.304L416.224 56ZM423.024 38.16H444.544L433.744 9.76L423.024 38.16ZM498.778 6.24C500.645 4.32 502.858 2.8 505.418 1.68C507.978 0.559997 510.698 -3.8147e-06 513.578 -3.8147e-06H569.658C570.298 -3.8147e-06 570.938 0.0266625 571.578 0.0799952C572.218 0.133331 572.831 0.213332 573.418 0.319997C575.498 0.746664 577.445 1.49333 579.258 2.56C581.125 3.57333 582.778 4.85333 584.218 6.4C585.711 7.89333 586.965 9.6 587.978 11.52C588.991 13.3867 589.685 15.36 590.058 17.44H548.538V8.32C548.538 7.46666 548.111 7.04 547.258 7.04H535.818C535.445 7.04 535.125 7.17333 534.858 7.44C534.645 7.70666 534.538 8 534.538 8.32V23.2C534.538 24.0533 534.965 24.48 535.818 24.48H590.378C590.378 31.7867 590.378 35.5733 590.378 35.84C590.378 38.3467 589.791 40.8533 588.618 43.36C587.445 45.8133 585.978 47.9467 584.218 49.76C582.298 51.68 580.058 53.2 577.498 54.32C574.991 55.44 572.271 56 569.338 56H513.018C511.631 56 510.405 55.8933 509.338 55.68C507.258 55.2533 505.285 54.5333 503.418 53.52C501.551 52.4533 499.871 51.1733 498.378 49.68C496.938 48.1333 495.711 46.4267 494.698 44.56C493.738 42.64 493.071 40.64 492.698 38.56H534.538V47.68C534.538 48.5333 534.965 48.96 535.818 48.96H547.258C547.631 48.96 547.925 48.8267 548.138 48.56C548.405 48.2933 548.538 48 548.538 47.68V32.8C548.538 31.9467 548.111 31.52 547.258 31.52H492.618V20.16C492.778 17.44 493.391 14.9067 494.458 12.56C495.525 10.16 496.965 8.05333 498.778 6.24ZM674.131 -3.8147e-06V7.04H653.171V56H611.251V7.04H590.291V-3.8147e-06H674.131ZM677.949 -3.8147e-06H719.869V56H677.949V-3.8147e-06ZM803.97 -3.8147e-06V7.04H768.93V24.4H803.97V31.52H768.93V48.96H803.97V56H727.09V-3.8147e-06H803.97ZM817.763 6.24C819.629 4.32 821.843 2.8 824.403 1.68C826.963 0.559997 829.683 -3.8147e-06 832.563 -3.8147e-06H888.643C889.283 -3.8147e-06 889.923 0.0266625 890.563 0.0799952C891.203 0.133331 891.816 0.213332 892.403 0.319997C894.483 0.746664 896.429 1.49333 898.243 2.56C900.109 3.57333 901.763 4.85333 903.203 6.4C904.696 7.89333 905.949 9.6 906.963 11.52C907.976 13.3867 908.669 15.36 909.043 17.44H867.523V8.32C867.523 7.46666 867.096 7.04 866.243 7.04H854.803C854.429 7.04 854.109 7.17333 853.843 7.44C853.629 7.70666 853.523 8 853.523 8.32V23.2C853.523 24.0533 853.949 24.48 854.803 24.48H909.363C909.363 31.7867 909.363 35.5733 909.363 35.84C909.363 38.3467 908.776 40.8533 907.603 43.36C906.429 45.8133 904.963 47.9467 903.203 49.76C901.283 51.68 899.043 53.2 896.483 54.32C893.976 55.44 891.256 56 888.323 56H832.003C830.616 56 829.389 55.8933 828.323 55.68C826.243 55.2533 824.269 54.5333 822.403 53.52C820.536 52.4533 818.856 51.1733 817.363 49.68C815.923 48.1333 814.696 46.4267 813.683 44.56C812.723 42.64 812.056 40.64 811.683 38.56H853.523V47.68C853.523 48.5333 853.949 48.96 854.803 48.96H866.243C866.616 48.96 866.909 48.8267 867.123 48.56C867.389 48.2933 867.523 48 867.523 47.68V32.8C867.523 31.9467 867.096 31.52 866.243 31.52H811.603V20.16C811.763 17.44 812.376 14.9067 813.443 12.56C814.509 10.16 815.949 8.05333 817.763 6.24Z" fill="white"/>
</svg>
